<svg id="Layer_1" enable-background="new 0 0 480.157 480.157" height="512" viewBox="0 0 480.157 480.157" width="512" xmlns="http://www.w3.org/2000/svg"><path d="m480 354.944v14c0 39.7-32.3 72-72 72h-336c-39.7 0-72-32.3-72-72v-14c0-4.42 3.58-8 8-8h464c4.42 0 8 3.58 8 8zm-99.638-221.73c.004-3.739-2.552-6.911-6.172-7.846-9.915-2.56-17.149-11.302-17.904-21.437-.297-3.99-3.41-7.285-7.401-7.558-7.059-.483-13.746-4.068-17.993-10.165-1.455-2.089-3.901-3.263-6.447-3.263h-246.445c-22.091 0-40 17.909-40 40v200c0 4.418 3.582 8 8 8h388c4.418 0 8-3.582 8-8v-157.973c0-6.437-7.274-10.322-12.522-6.595-21.01 14.922-49.143-.267-49.116-25.163zm20.378-10.58c-5.868 5.847-5.876 15.355 0 21.21 5.9 5.922 15.439 5.792 21.21 0 5.847-5.847 5.868-15.342 0-21.21-5.859-5.86-15.33-5.88-21.21 0zm77.07-55.86c-36.724-36.745-96.199-36.752-132.93 0-3.13 3.12-3.13 8.19 0 11.31 3.12 3.12 8.19 3.12 11.31 0 30.498-30.498 79.828-30.482 110.31 0 3.113 3.113 8.183 3.126 11.31 0 3.13-3.12 3.13-8.19 0-11.31zm-103.24 29.7c-3.12 3.12-3.12 8.18 0 11.31 3.13 3.12 8.19 3.12 11.32 0 14.058-14.058 36.81-14.099 50.91 0 3.112 3.113 8.183 3.127 11.31 0 3.13-3.12 3.13-8.19 0-11.31-20.27-20.29-53.157-20.383-73.54 0z"/></svg>