<svg id="Layer_3" enable-background="new 0 0 64 64" height="512" viewBox="0 0 64 64" width="512" xmlns="http://www.w3.org/2000/svg"><g><path d="m15 15h18c.553 0 1-.448 1-1v-6c0-.552-.447-1-1-1h-18c-.553 0-1 .448-1 1v6c0 .552.447 1 1 1zm1-6h16v4h-16z"/><path d="m10 27c2.757 0 5-2.243 5-5s-2.243-5-5-5-5 2.243-5 5 2.243 5 5 5zm0-8c1.654 0 3 1.346 3 3s-1.346 3-3 3-3-1.346-3-3 1.346-3 3-3z"/><path d="m17 25h24v2h-24z"/><path d="m17 21h24v2h-24z"/><path d="m10 39c2.757 0 5-2.243 5-5 0-.754-.18-1.463-.481-2.105l2.188-2.188-1.414-1.414-1.986 1.986c-.884-.786-2.034-1.279-3.307-1.279-2.757 0-5 2.243-5 5s2.243 5 5 5zm0-8c.722 0 1.376.267 1.894.693l-1.619 1.619-.38-.759-1.789.895 1 2c.144.288.417.488.734.54.054.008.107.012.16.012.263 0 .519-.104.707-.293l2.239-2.239c.031.173.054.35.054.532 0 1.654-1.346 3-3 3s-3-1.346-3-3 1.346-3 3-3z"/><path d="m17 33h22v2h-22z"/><path d="m17 37h18v2h-18z"/><path d="m63 23.829c0-2.112-1.718-3.829-3.828-3.829-1.023 0-1.984.398-2.707 1.122l-3.172 3.171-6.293 6.293v-28.586c0-.552-.447-1-1-1h-34c-.266 0-.52.105-.707.293l-10 10c-.188.187-.293.442-.293.707v50c0 .552.447 1 1 1h44c.553 0 1-.448 1-1v-20.586l11.707-11.707 1.027-1.027c-.518 2.58-1.78 4.952-3.683 6.855l-4.758 4.757 1.414 1.414 4.758-4.757c2.827-2.827 4.411-6.557 4.515-10.538.652-.707 1.02-1.614 1.02-2.582zm-5.121-1.294c.341-.34.811-.535 1.293-.535 1.008 0 1.828.82 1.828 1.829 0 .488-.19.948-.535 1.293l-2.465 2.464-2.586-2.586zm-3.879 3.879.586.586-12.586 12.586-.586-.586zm-23.741 25.431 1.94-3.233 2.189 2.189-3.232 1.939zm3.155-4.845 6.586-6.586 2.586 2.586-6.586 6.586zm-22.414-42.586v6.586h-6.586zm34 56.586h-42v-48h9c.553 0 1-.448 1-1v-9h32v29.586l-5.707 5.707-8 8c-.06.06-.093.133-.134.202l-.016-.01-3 5c-.236.394-.174.897.15 1.222l.293.293-2.293 2.293 1.414 1.414 2.293-2.293.293.293c.192.193.449.293.707.293.177 0 .354-.047.515-.143l5-3-.01-.016c.069-.041.142-.075.202-.134l8-8 .293-.293zm-1-19.414-.586-.586 12.586-12.586.586.586z"/><path d="m5 55h20v2h-20z"/><path d="m5 51h20v2h-20z"/><path d="m5 47h20v2h-20z"/><path d="m5 43h10v2h-10z"/></g></svg>