<?xml version="1.0" encoding="iso-8859-1"?>
<!-- Generator: Adobe Illustrator 19.0.0, SVG Export Plug-In . SVG Version: 6.00 Build 0)  -->
<svg version="1.1" id="Capa_1" xmlns="http://www.w3.org/2000/svg" xmlns:xlink="http://www.w3.org/1999/xlink" x="0px" y="0px"
	 viewBox="0 0 512 512" style="enable-background:new 0 0 512 512;" xml:space="preserve">
<g>
	<g>
		<path d="M453.584,234.619c-1.509-18.762-5.638-37.015-12.335-54.508l46.141-36.955l-74.979-93.622L366.55,86.26
			c-15.833-10.666-32.956-18.902-51.119-24.58V3.404H195.48V62.06c-18.992,6.077-36.815,14.964-53.228,26.529L95.911,52.573
			l-73.61,94.711l47.161,36.645c-6.297,17.533-10.046,35.765-11.195,54.458L0,252.331l27.909,116.652l59.396-14.204
			c3.914,6.365,12.853-5.656-86.215,93.412l60.405,60.405l49.46-49.46l93.512,44.072l26.309-55.817
			c18.173,2.339,36.305,2.149,54.128-0.45l26.949,55.077l107.746-52.718l-26.879-54.937c13.315-12.665,24.73-27.009,34.056-42.832
			l59.026,13.215L512,247.693L453.584,234.619z M61.495,466.184l-17.993-17.993c24.852-24.852,110.308-110.308,138.103-138.103
			c5.226,6.415,11.526,12.4,18.592,17.393C184.902,342.776,77.114,450.564,61.495,466.184z M282.224,288.247l35.715-35.705
			c-1.319,55.709-69.259,82.909-108.665,43.502c-39.698-39.699-11.951-107.353,43.502-108.665l-35.705,35.705L282.224,288.247z
			 M254.286,344.624c66.187,0,111.472-66.787,87.004-128.257l-8.417-21.171l-50.649,50.639l-22.751-22.751l50.649-50.639
			l-21.171-8.427c-74.967-29.819-150.285,43.073-122.7,119.081c-0.1-0.1,0.612-0.673-14.224,14.164
			c-33.529-74.808,21.393-160.394,104.057-160.394c62.834,0,113.953,51.119,113.953,113.953
			c0,80.723-82.079,135.818-156.486,105.717C237.977,332.114,219.704,344.624,254.286,344.624z M463.09,328.93l-52.039-11.645
			c-15.951,31.03-23.461,42.6-55.387,69.591l23.82,48.67l-53.878,26.359l-23.84-48.72c-41.465,8.583-54.64,7.098-88.374,0.76
			l-23.27,49.35l-54.248-25.57c4.353-9.234-4.626,1.118,55.067-58.576c94.665,48.3,209.084-20.507,209.084-128.327
			c0-79.367-64.573-143.941-143.941-143.941c-109.385,0-178.34,117.629-126.418,212.733l-17.813,17.813
			c-2.557-4.255-3.512-6.117-9.426-17.103l-52.329,12.525l-13.954-58.336l51.699-12.365c0.11-43.24,4.443-56.199,17.993-87.924
			l-41.453-32.217l36.805-47.361l41.013,31.877c35.192-28.023,49.183-32.821,83.266-41.553V33.391h59.975V84.77
			c42.276,10.513,53.985,18.077,81.836,39.324l40.463-32.407l37.495,46.811l-40.623,32.537
			c17.72,39.169,19.078,52.814,19.852,87.794l51.729,11.575L463.09,328.93z"/>
	</g>
</g>
<g>
</g>
<g>
</g>
<g>
</g>
<g>
</g>
<g>
</g>
<g>
</g>
<g>
</g>
<g>
</g>
<g>
</g>
<g>
</g>
<g>
</g>
<g>
</g>
<g>
</g>
<g>
</g>
<g>
</g>
</svg>
