<svg id="Capa_1" enable-background="new 0 0 512 512" height="512" viewBox="0 0 512 512" width="512" xmlns="http://www.w3.org/2000/svg"><g><path d="m84.047 221.564h95.101c9.336 0 16.931-7.595 16.931-16.931v-39.33c0-9.336-7.595-16.931-16.931-16.931h-95.101c-9.336 0-16.931 7.595-16.931 16.931v39.33c0 9.336 7.595 16.931 16.931 16.931zm-1.931-56.261c0-1.065.866-1.931 1.931-1.931h95.101c1.064 0 1.931.866 1.931 1.931v39.33c0 1.065-.866 1.931-1.931 1.931h-95.101c-1.064 0-1.931-.866-1.931-1.931z"/><path d="m484.065 107.305h-48c-4.143 0-7.5 3.358-7.5 7.5s3.357 7.5 7.5 7.5h48c7.132 0 12.935 5.803 12.935 12.935s-5.803 12.935-12.935 12.935c-11.075 0-208.564 0-215.882 0v-25.87h132.882c4.143 0 7.5-3.358 7.5-7.5s-3.357-7.5-7.5-7.5h-132.883c-.019-10.621-8.663-19.255-19.288-19.255h-17.447v-16.729c0-22.337-18.173-40.51-40.51-40.51h-118.679c-22.337 0-40.51 18.173-40.51 40.51v165.454c0 4.142 3.357 7.5 7.5 7.5s7.5-3.358 7.5-7.5v-165.454c0-12.306 8.758-22.604 20.368-24.99v23.32c0 10.203 8.301 18.503 18.503 18.503h91.956c10.202 0 18.503-8.301 18.503-18.503v-23.32c11.61 2.385 20.368 12.684 20.368 24.99v348.338c-.259 0-5.834 0-20.368 0v-110.297c0-9.336-7.595-16.932-16.931-16.932h-95.1c-9.336 0-16.931 7.596-16.931 16.932v110.297h-20.368v-147.825c0-4.142-3.357-7.5-7.5-7.5s-7.5 3.358-7.5 7.5v147.826h-15.975c-8.697 0-15.773 7.075-15.773 15.773v29.983c0 8.697 7.076 15.773 15.773 15.773h231.648c8.697 0 15.772-7.076 15.772-15.773v-29.983c0-8.697-7.075-15.773-15.772-15.773h-15.976v-237.229h17.447c2.255 0 4.411-.409 6.424-1.123l179.249 103.49c4.389 2.534 9.184 3.737 13.921 3.737 9.661 0 19.07-5.011 24.238-13.961 3.731-6.462 4.723-13.99 2.791-21.198-1.931-7.208-6.553-13.231-13.015-16.962l-126.85-73.239h148.415c15.403 0 27.935-12.531 27.935-27.935s-12.531-27.935-27.935-27.935zm-302.987-37.653c0 1.932-1.571 3.503-3.503 3.503h-91.956c-1.932 0-3.503-1.572-3.503-3.503v-23.84h98.962zm-98.962 239.71c0-1.065.866-1.932 1.931-1.932h95.101c1.064 0 1.931.867 1.931 1.932v110.298c-10.836 0-82.217 0-98.962 0v-110.298zm165.306 125.298c.426 0 .772.347.772.773v29.983c0 .426-.347.773-.772.773h-231.649c-.427 0-.773-.347-.773-.773v-29.983c0-.426.347-.773.773-.773zm5.762-271.519c0 2.3-1.877 4.29-4.29 4.29h-17.447v-64.381h17.447c2.365 0 4.29 1.924 4.29 4.289zm201.818 86.262c2.992 1.728 5.132 4.517 6.026 7.854s.435 6.823-1.293 9.815c-3.565 6.176-11.49 8.302-17.669 4.734l-175.37-101.25c.994-2.378 1.482-4.955 1.487-7.382h37.467z"/></g></svg>