<?xml version="1.0" encoding="iso-8859-1"?>
<!-- Generator: Adobe Illustrator 19.0.0, SVG Export Plug-In . SVG Version: 6.00 Build 0)  -->
<svg version="1.1" id="Capa_1" xmlns="http://www.w3.org/2000/svg" xmlns:xlink="http://www.w3.org/1999/xlink" x="0px" y="0px"
	 viewBox="0 0 512 512" style="enable-background:new 0 0 512 512;" xml:space="preserve">
<g>
	<g>
		<rect x="371.79" y="245.567" width="76.4" height="48.54"/>
	</g>
</g>
<g>
	<g>
		<path d="M102.011,30.243C45.762,30.243,0,76.004,0,132.253v269.169h277.979V132.253c0-41.049,18.834-77.78,48.314-102.01H102.011z
			 M231.627,306.593H46.352v-129.07h185.275V306.593z"/>
	</g>
</g>
<g>
	<g>
		<path d="M409.989,30.243c-56.249,0-102.011,45.762-102.011,102.011v269.169H512v-269.17C512,76.004,466.238,30.243,409.989,30.243
			z M478.188,324.104H341.79v-108.54h136.398V324.104z M478.188,190.012H341.79v-30h136.398V190.012z"/>
	</g>
</g>
<g>
	<g>
		<polygon points="138.989,259.851 76.352,219.887 76.352,276.593 201.627,276.593 201.627,219.887 		"/>
	</g>
</g>
<g>
	<g>
		<polygon points="112.749,207.523 138.989,224.265 165.229,207.523 		"/>
	</g>
</g>
<g>
	<g>
		<rect y="431.427" width="30" height="50.33"/>
	</g>
</g>
<g>
	<g>
		<rect x="307.98" y="431.427" width="30" height="50.33"/>
	</g>
</g>
<g>
	<g>
		<rect x="482" y="431.427" width="30" height="50.33"/>
	</g>
</g>
<g>
</g>
<g>
</g>
<g>
</g>
<g>
</g>
<g>
</g>
<g>
</g>
<g>
</g>
<g>
</g>
<g>
</g>
<g>
</g>
<g>
</g>
<g>
</g>
<g>
</g>
<g>
</g>
<g>
</g>
</svg>
