<svg height="512" viewBox="0 0 64 64" width="512" xmlns="http://www.w3.org/2000/svg"><g id="mobile-money-coins-fine"><path d="m30 37.47v-1.47a8.006 8.006 0 0 0 -8-8 8.011 8.011 0 0 0 -8 8v1.47a13.913 13.913 0 0 0 16 0z"/><path d="m21 41.95v2.05h2v-2.05c-.33.02-.66.05-1 .05s-.67-.03-1-.05z"/><path d="m20 46h4v2h-4z"/><path d="m41 38h12v2h-12z"/><path d="m15 52v1h3v-8a1 1 0 0 1 1-1v-2.29a15.963 15.963 0 0 1 -4-1.34z"/><path d="m41 30a6 6 0 1 0 6-6 6 6 0 0 0 -6 6zm9-1.5h-2a.5.5 0 0 0 -.5-.5h-1a.5.5 0 0 0 0 1h1a2.5 2.5 0 0 1 .5 4.949v1.051h-2v-1.051a2.5 2.5 0 0 1 -2-2.449h2a.5.5 0 0 0 .5.5h1a.5.5 0 0 0 0-1h-1a2.5 2.5 0 0 1 -.5-4.949v-1.051h2v1.051a2.5 2.5 0 0 1 2 2.449z"/><path d="m18 55h-3v5a1 1 0 0 0 1 1h2.56a3.906 3.906 0 0 1 -.56-2z"/><path d="m20 59a2 2 0 0 0 4 0v-5h-4z"/><path d="m42 46h12v2h-12z"/><path d="m44 42h12v2h-12z"/><path d="m26 55v4a3.906 3.906 0 0 1 -.56 2h22.56a1 1 0 0 0 1-1v-5zm8 4h-4v-2h4z"/><circle cx="22" cy="22" r="4"/><path d="m18.3 26.72a6.006 6.006 0 1 1 7.4-.01 9.989 9.989 0 0 1 6.29 9.08 14 14 0 1 0 -19.98 0 10.011 10.011 0 0 1 6.29-9.07z"/><path d="m49 4a1 1 0 0 0 -1-1h-32a1 1 0 0 0 -1 1v3h34z"/><path d="m39 30a7.974 7.974 0 0 0 2.73 6h-1.73a1 1 0 0 0 -1 1v4a1 1 0 0 0 1 1h2v2h-1a1 1 0 0 0 -1 1v4a1 1 0 0 0 1 1h8v3h-23v-8a1 1 0 0 0 -1-1v-2.29a15.994 15.994 0 1 0 -10-30.08v-2.63h34v13.26a8.242 8.242 0 0 0 -2-.26 8.011 8.011 0 0 0 -8 8z"/><path d="m20 51v1h4v-1-1h-4z"/></g></svg>