<svg height="512pt" viewBox="0 -53 512.00033 512" width="512pt" xmlns="http://www.w3.org/2000/svg"><path d="m317.003906 345.144531c0 33.699219-27.316406 61.015625-61.015625 61.015625-33.695312 0-61.011719-27.316406-61.011719-61.015625 0-33.695312 27.316407-61.011719 61.011719-61.011719 33.699219 0 61.015625 27.316407 61.015625 61.011719zm0 0" fill="#2ecdf9"/><path d="m484.949219 147.582031c-6.832031 0-13.667969-2.570312-18.929688-7.730469-56.425781-55.300781-131.015625-85.757812-210.027343-85.757812-79.007813 0-153.589844 30.453125-210.011719 85.742188-10.671875 10.457031-27.796875 10.28125-38.25-.386719-10.457031-10.667969-10.28125-27.792969.386719-38.25 66.59375-65.257813 154.625-101.199219 247.875-101.199219 93.257812 0 181.292968 35.949219 247.894531 101.21875 10.667969 10.457031 10.839843 27.582031.382812 38.25-5.296875 5.402344-12.308593 8.113281-19.320312 8.113281zm0 0" fill="#00b4fb"/><path d="m421.839844 211.972656c-6.832032 0-13.664063-2.570312-18.929688-7.730468-39.46875-38.683594-91.648437-59.988282-146.921875-59.988282-55.265625 0-107.4375 21.300782-146.90625 59.976563-10.671875 10.457031-27.792969 10.285156-38.25-.386719-10.457031-10.667969-10.28125-27.792969.386719-38.25 49.644531-48.644531 115.261719-75.433594 184.769531-75.433594 69.519531 0 135.144531 26.792969 184.785157 75.449219 10.671874 10.457031 10.84375 27.582031.386718 38.25-5.296875 5.40625-12.304687 8.113281-19.320312 8.113281zm0 0" fill="#2ecdf9"/><path d="m358.730469 276.363281c-6.832031 0-13.664063-2.570312-18.929688-7.730469-22.515625-22.066406-52.28125-34.21875-83.8125-34.21875-31.527343 0-61.289062 12.152344-83.804687 34.214844-10.667969 10.453125-27.792969 10.28125-38.246094-.390625-10.457031-10.667969-10.28125-27.792969.386719-38.25 32.683593-32.03125 75.894531-49.671875 121.664062-49.671875 45.777344 0 88.988281 17.644532 121.679688 49.683594 10.667969 10.453125 10.839843 27.582031.382812 38.25-5.296875 5.40625-12.304687 8.113281-19.320312 8.113281zm0 0" fill="#00b4fb"/></svg>