<svg id="Capa_1" enable-background="new 0 0 512 512" height="512" viewBox="0 0 512 512" width="512" xmlns="http://www.w3.org/2000/svg"><g><g id="Siren"><g><path d="m179.711 471.391h77.578l90-90h-77.578z"/><path d="m227.289 381.391h-166.289v90h76.289z"/><path d="m389.711 381.391-90 90h151.289v-90z"/></g><g><path d="m30 216.391h-30c0-65.669 25.005-128.101 70.43-175.782l21.709 20.684c-40.064 42.085-62.139 97.163-62.139 155.098z"/></g><g><path d="m512 216.391h-30c0-57.935-22.075-113.013-62.139-155.098l21.709-20.684c45.425 47.681 70.43 110.113 70.43 175.782z"/></g><g><path d="m90 216.391h-30c0-48.237 17.813-94.57 50.156-130.459l22.295 20.098c-27.378 30.366-42.451 69.55-42.451 110.361z"/></g><g><path d="m452 216.391h-30c0-40.811-15.073-79.995-42.451-110.361l22.295-20.098c32.344 35.888 50.156 82.221 50.156 130.459z"/></g></g><g><path d="m256 81.391c-74.443 0-135 60.557-135 135v135h120v-62.763c-17.422-6.213-30-22.707-30-42.237 0-24.814 20.186-45 45-45s45 20.186 45 45c0 19.53-12.578 36.024-30 42.237v62.763h120v-135c0-74.444-60.557-135-135-135z"/><circle cx="256" cy="246.391" r="15"/></g></g></svg>