<?xml version="1.0"?>
<svg xmlns="http://www.w3.org/2000/svg" viewBox="0 0 512 512" width="512" height="512"><g id="No_House_Visit" data-name="No House Visit"><g id="Glyph"><path d="M408,0H152a8,8,0,0,0-8,8V114.549c17-22.866,19.529-25.722,30.3-26.488,27.637-1.917,53.3,51.545,23.809,89.465C175.118,205.024,144,240,144,240V504a8,8,0,0,0,8,8H318.078A144.147,144.147,0,0,1,240,384c0-79.4,64.6-144,144-144a143.945,143.945,0,0,1,32,3.589V8A8,8,0,0,0,408,0ZM192,296a8,8,0,0,1-16,0V232a8,8,0,0,1,16,0Z"/><path d="M0,296v19.156A102.919,102.919,0,0,0,16,370.37V448H72V336a8,8,0,0,1,16,0V448h16V296Z"/><path d="M95.935,464.793c14.832,15.106,18.49,36.489,14.689,47.207H120C136.665,512,127.3,471.131,95.935,464.793Z"/><path d="M88,512H32a16.019,16.019,0,0,1-16-16V472a8,8,0,0,1,8-8H56C93.2,464,106.237,512,88,512Z"/><path d="M384,256A128,128,0,1,0,512,384,128.144,128.144,0,0,0,384,256Zm56,192c-6.02,0-3.755-1.668-56-52.687C331.758,446.33,334.022,448,328,448a8.01,8.01,0,0,1-5.657-13.657L372.687,384l-50.344-50.343a8,8,0,0,1,11.314-11.314L384,372.687l50.343-50.344a8,8,0,0,1,11.314,11.314L395.313,384l50.344,50.343A8.01,8.01,0,0,1,440,448Z"/><path d="M175.433,104.02C169,104.478,130.006,160.67,124,168H88V151.2A40.071,40.071,0,0,0,120,112V96c21.173,0-2.216-64-56-64C1.063,32-26.266,116.873,32.206,146.345,13.076,152.261,0,168.843,0,189.474V280H104c-.037-63.769.084-60.4-.1-64h28.363c22.5,0,47.948-49.707,53.215-56C207.153,132.131,187.473,103.19,175.433,104.02Z"/><path d="M440,112a8,8,0,0,1-8-8V56a8,8,0,0,1,16,0v48A8,8,0,0,1,440,112Z"/><path d="M440,240a8,8,0,0,1-8-8V184a8,8,0,0,1,16,0v48A8,8,0,0,1,440,240Z"/></g></g></svg>
